<?xml version="1.0" standalone="no"?>
<!DOCTYPE svg PUBLIC "-//W3C//DTD SVG 20010904//EN"
 "http://www.w3.org/TR/2001/REC-SVG-20010904/DTD/svg10.dtd">
<svg version="1.0" xmlns="http://www.w3.org/2000/svg"
 width="433.000000pt" height="433.000000pt" viewBox="0 0 433.000000 433.000000"
 preserveAspectRatio="xMidYMid meet">
<metadata>
Created by potrace 1.14, written by Peter Selinger 2001-2017
</metadata>
<g transform="translate(0.000000,433.000000) scale(0.100000,-0.100000)"
fill="#000000" stroke="none">
<path d="M3539 4309 c-87 -16 -134 -29 -184 -49 -11 -4 -64 -20 -118 -35 -145
-39 -384 -159 -487 -243 -116 -96 -212 -216 -268 -338 -21 -45 -29 -52 -85
-74 -34 -14 -161 -75 -283 -136 l-221 -111 -77 2 c-147 5 -284 -45 -376 -137
-30 -30 -96 -112 -147 -184 -111 -156 -153 -201 -202 -214 -38 -10 -114 -14
-192 -10 -167 9 -301 -227 -253 -445 10 -47 40 -111 84 -180 18 -30 18 -31 -2
-75 -11 -25 -36 -62 -54 -84 -84 -99 -152 -315 -119 -379 35 -67 225 -267 254
-267 4 0 36 8 71 18 36 9 97 17 135 17 l70 0 32 -85 c39 -104 39 -161 0 -337
-17 -75 -27 -152 -27 -201 0 -43 -3 -82 -7 -86 -5 -4 -8 -11 -9 -14 0 -4 -4
-32 -9 -62 -5 -30 -8 -65 -7 -78 4 -58 90 -148 211 -221 60 -36 78 -42 125
-42 31 0 60 2 66 6 14 9 13 68 -2 83 -14 14 -2 19 70 26 29 3 57 8 62 11 5 3
21 30 35 60 39 79 65 85 141 33 98 -67 160 -91 240 -94 48 -2 82 -9 105 -22
64 -36 174 -90 234 -117 127 -55 185 -82 340 -159 88 -44 162 -80 165 -79 3 1
68 4 145 8 77 3 154 7 170 9 17 2 59 7 95 11 129 13 409 73 502 107 l27 10 1
1746 0 1747 -55 55 c-85 84 -99 119 -101 275 -2 84 2 148 10 180 8 28 16 67
19 85 3 19 8 47 12 62 8 33 9 33 -136 7z"/>
</g>
</svg>
